<?xml version="1.0" encoding="utf-8"?><svg version="1.1" id="Layer_1" xmlns="http://www.w3.org/2000/svg" xmlns:xlink="http://www.w3.org/1999/xlink" x="0px" y="0px" viewBox="0 0 121.94 122.88" style="enable-background:new 0 0 121.94 122.88" xml:space="preserve"><style type="text/css">.st0{fill-rule:evenodd;clip-rule:evenodd;}</style><g><path class="st0" d="M88.94,61.99v-9.86c0.45-1.9,1.28-2.47,2.22-2.65C93.71,49.08,93.44,61.4,88.94,61.99L88.94,61.99z M54.33,45.16c1.95,0.73,2.36,2.36,1.27,2.97c-1.28,0.72-2.89-0.35-4.14-0.75c-3.26-1.04-7.14-1.16-9.95,0.6 c-0.75,0.47-1.51,1.08-2.29,1.81c0.29-1.03,0.74-1.97,1.39-2.8C43.44,43.43,50.55,43.22,54.33,45.16L54.33,45.16z M66.63,45.16 c-1.95,0.73-2.36,2.36-1.27,2.97c1.28,0.72,2.89-0.35,4.14-0.75c3.26-1.04,7.13-1.16,9.95,0.6c0.75,0.47,1.51,1.08,2.29,1.81 c-0.29-1.03-0.74-1.97-1.39-2.8C77.52,43.43,70.41,43.22,66.63,45.16L66.63,45.16L66.63,45.16z M19.07,30.68h10.39 c0.04-3.65,0.37-7.19,0.84-10.6C31.62,10.6,41.57-8.58,53.98,4.41c5.48,5.14,9.4,4.34,14.92,0.27c4.9-3.62,10.49-8.62,17.25,0.4 c3.8,5.07,4.48,12.98,5.28,18.51l0.51,3.56c0.28,1.11,0.52,2.28,0.71,3.52l10.22,0c2.7,0,4.91,2.06,4.91,4.59 c0,2.52-2.21,4.59-4.91,4.59h-9.55c0,1.96-0.07,4.02-0.23,6.2l-1.86,1.16c1.5-0.11,2.56,0.83,3.19,2.41 c0.31,0.79,0.51,1.77,0.6,2.83c0.07,0.99,0.05,2.09-0.07,3.2c-0.44,4.04-2.3,8.25-5.74,8.75c-0.15,0.02-0.3,0.02-0.44,0.01v0.51 c0,0.02,0,0.05,0,0.07c0.3,7.49-2.21,10.41-6.21,14.22c0.14,0.05,0.27,0.14,0.38,0.25c4.65,4.69,5.97,5.15,10.02,6.59 c1.23,0.44,2.7,0.96,4.5,1.67l0,0c0.04,0.01,0.08,0.03,0.11,0.05c3.06,1.63,5.91,3.49,8.54,5.61l2.84,2.5 c1.36,1.31,2.65,2.7,3.85,4.19c4.14,5.15,7.27,13.62,9.1,21.37c0.03,0.1,0.05,0.2,0.05,0.31c0,0.61-0.49,1.1-1.1,1.1H1.1v0 c-0.07,0-0.15-0.01-0.22-0.02c-0.59-0.12-0.98-0.71-0.85-1.3c1.52-7.23,4.12-15.65,7.94-20.81c3.83-5.18,8.87-9.23,15.25-12.04 c1.17-0.54,2.46-1.11,3.61-1.63v0c4.94-2.19,7.26-3.23,12.08-8.19c0.02-0.02,0.04-0.04,0.06-0.06l-0.04-0.04 c-3.21-3-4.74-4.42-6.02-10.56c-0.03-0.12-0.04-0.25-0.04-0.37h0v-3.46c-0.18,0.03-0.37,0.03-0.56,0.01 c-3.44-0.5-5.3-4.72-5.74-8.75c-0.12-1.11-0.14-2.21-0.07-3.2c0.08-1.06,0.28-2.03,0.6-2.83c0.68-1.72,1.87-2.68,3.58-2.36 c0.82,0.15,1.57,0.58,2.2,1.29v-2.99l-1.4-0.79c-0.31-2.12-0.17-2.72,0.35-4.93H19.07c-2.7,0-4.91-2.06-4.91-4.59 C14.16,32.74,16.37,30.68,19.07,30.68L19.07,30.68L19.07,30.68z M86.03,39.85H35.45v28.01c1.39,6.64,2.27,6.38,6.52,10.54 l7.38,7.23c1.33,1.1,2.84,1.74,4.43,2.12c2.8,0.66,12.23,0.87,14.87,0.02c1.6-0.52,3.11-1.47,4.51-2.94l5.36-5.21 c5.18-5.03,7.87-6.37,7.49-14.69V39.85L86.03,39.85L86.03,39.85z M41.58,81.33l-0.02,0.02c-4.86,4.99-7.19,6.02-12.15,8.22 c-0.77,0.34-1.61,0.71-2.5,1.12c8.94,16.22,55.02,18.92,66.17-0.94c-1.12-0.45-2.07-0.81-2.91-1.12c-4.05-1.53-5.27-1.99-9.82-6.55 c-0.02-0.02-0.04-0.04-0.06-0.07c-0.11-0.12-0.19-0.26-0.24-0.41c-0.13,0.12-0.25,0.24-0.38,0.37l-5.13,4.97 c-0.8,0.83-1.63,1.53-2.5,2.08c-0.88,0.57-1.8,1-2.76,1.31c-3.07,0.99-12.66,0.77-15.84,0.02c-0.92-0.22-1.82-0.51-2.67-0.91 c-0.86-0.4-1.7-0.92-2.5-1.58c-0.01-0.01-0.12-0.11-0.12-0.11L41.58,81.33L41.58,81.33L41.58,81.33z M44.18,52.15 c-0.42,0.16-0.88-0.09-1.02-0.57c-0.14-0.48,0.08-1,0.5-1.16c3.22-1.26,6.5-1.17,9.72,0c0.42,0.15,0.65,0.66,0.52,1.14 c-0.13,0.48-0.58,0.74-1,0.59c-0.53-0.19-1.07-0.35-1.6-0.48c0.05,0.19,0.08,0.4,0.08,0.6c0,1.24-1.01,2.25-2.25,2.25 c-1.24,0-2.25-1.01-2.25-2.25c0-0.31,0.06-0.6,0.17-0.86C46.09,51.53,45.14,51.77,44.18,52.15L44.18,52.15L44.18,52.15L44.18,52.15 z M70.28,51.47c-0.09,0.25-0.15,0.52-0.15,0.8c0,1.24,1.01,2.25,2.25,2.25c1.24,0,2.25-1.01,2.25-2.25c0-0.36-0.08-0.69-0.23-0.99 c0.98,0.11,1.97,0.32,2.97,0.65c0.43,0.14,0.87-0.14,0.99-0.63c0.12-0.48-0.13-0.99-0.55-1.13c-1.62-0.53-3.25-0.79-4.86-0.79 c-1.61,0-3.22,0.27-4.8,0.8c-0.42,0.14-0.67,0.64-0.55,1.13c0.12,0.48,0.57,0.76,0.99,0.62C69.16,51.74,69.72,51.59,70.28,51.47 L70.28,51.47L70.28,51.47L70.28,51.47z M70.75,71.87c-1.1,0.37-2.23,0.69-3.39,0.94v0c-1.2,0.33-2.3,0.53-3.28,0.55 c-1.11,0.02-2.08-0.19-2.84-0.7c-0.23-0.16-0.44-0.32-0.63-0.5c-0.18,0.18-0.39,0.34-0.63,0.5c-0.77,0.51-1.73,0.72-2.84,0.7 c-0.98-0.02-2.08-0.22-3.28-0.55v0c-1.16-0.25-2.29-0.57-3.39-0.94c-1.09-0.37-2.16-0.8-3.2-1.28c-0.5-0.23-0.7-0.8-0.45-1.26 c0.15-0.28,0.43-0.45,0.74-0.5v0c0.56-0.09,1-0.15,1.42-0.21l0.03,0c1.34-0.19,2.37-0.33,3.63-0.83c0.35-0.14,0.7-0.3,1.05-0.46 c2.01-0.93,4.2-1.94,6.4-0.2c0.19,0.15,0.36,0.31,0.52,0.47c0.16-0.16,0.33-0.32,0.52-0.47c2.19-1.74,4.39-0.73,6.4,0.2 c0.35,0.16,0.69,0.32,1.05,0.46c1.26,0.5,2.29,0.65,3.63,0.83l0.03,0c0.41,0.06,0.86,0.12,1.42,0.21l0,0 c0.31,0.05,0.59,0.23,0.74,0.5c0.25,0.46,0.05,1.03-0.45,1.26C72.9,71.07,71.84,71.5,70.75,71.87L70.75,71.87L70.75,71.87 L70.75,71.87z M57.97,63.32c-0.44-0.37-0.5-1.03-0.13-1.47c0.37-0.44,1.03-0.5,1.47-0.13c0.52,0.44,1.02,0.67,1.5,0.67 c0.48,0.01,1-0.21,1.57-0.68c0.44-0.37,1.1-0.3,1.46,0.14c0.37,0.44,0.3,1.1-0.14,1.46c-0.96,0.79-1.93,1.16-2.92,1.15 C59.79,64.47,58.86,64.07,57.97,63.32L57.97,63.32L57.97,63.32L57.97,63.32z M54.69,77.08c-0.54-0.28-0.74-0.95-0.46-1.48 c0.28-0.53,0.95-0.74,1.48-0.45c1.69,0.9,3.35,1.35,4.99,1.36c1.63,0,3.27-0.44,4.91-1.35c0.53-0.29,1.2-0.1,1.49,0.43 c0.29,0.53,0.1,1.2-0.43,1.49c-1.96,1.09-3.95,1.62-5.96,1.61C58.7,78.68,56.69,78.14,54.69,77.08L54.69,77.08L54.69,77.08 L54.69,77.08z M32.57,61.98v-9.86c-0.45-1.9-1.28-2.47-2.22-2.65C27.81,49.09,28.05,61.39,32.57,61.98L32.57,61.98z"/></g></svg>