<?xml version="1.0" encoding="utf-8"?><svg version="1.1" id="Layer_1" xmlns="http://www.w3.org/2000/svg" xmlns:xlink="http://www.w3.org/1999/xlink" x="0px" y="0px" viewBox="0 0 112.67 122.88" style="enable-background:new 0 0 112.67 122.88" xml:space="preserve"><style type="text/css">.st0{fill-rule:evenodd;clip-rule:evenodd;}</style><g><path class="st0" d="M24.79,91.8c4.43-1.97,6.58-2.92,10.78-7.17c-1.25-1.05-2.42-2.2-3.48-3.45c-3.25-3.81-4.61-7.84-6.37-13.09 c-0.21-0.62-0.42-1.26-0.63-1.86c-2.23-0.03-4.11-1.92-5.44-4.55c-1.03-2.04-1.75-4.56-2.01-6.89c-0.28-2.44-0.05-4.73,0.84-6.19 c0.63-1.03,1.51-1.67,2.68-1.76l0.36-3.62c-0.46-2.79-1-5.73-1.4-8.53c-0.11-0.75-0.17-1.48-0.21-2.21 c-1.62,0.33-2.94-1.19-3.18-5.44v-6.86c0.99-8.2,4.81-11.49,11.08-10.55C33.78,3.4,42.2-0.08,53.79,0.01 c12.91-0.25,23.92,2.76,31.92,10.95c4.21,4.19,5.99,10.67,4.91,19.9c0.04,1.75-0.06,3.59-0.34,5.52c-0.31,2.18-0.68,4.44-0.98,6.56 l0.37,4.06c1.17,0.13,2.03,0.8,2.62,1.87c0.72,1.3,0.93,3.21,0.74,5.3c-0.18,1.98-0.7,4.16-1.47,6.13 c-1.35,3.47-3.52,6.33-6.05,6.65c-0.27,0.89-0.54,1.8-0.8,2.68c-1.3,4.38-2.32,7.82-4.98,11.19c-1.05,1.32-2.2,2.54-3.43,3.64 c4.45,4.45,5.93,5.01,10.42,6.69c1.05,0.39,2.24,0.84,3.33,1.27l0,0c0.04,0.01,0.07,0.03,0.1,0.05c5.46,2.91,10.23,6.6,14.07,11.37 c3.83,4.76,6.72,10.58,8.41,17.74c0.03,0.09,0.04,0.19,0.04,0.29c0,0.56-0.46,1.02-1.02,1.02H1.02v0c-0.07,0-0.14-0.01-0.21-0.02 c-0.55-0.11-0.9-0.65-0.79-1.2c1.41-6.68,3.81-12.46,7.34-17.23c3.54-4.78,8.2-8.53,14.09-11.13v0 C22.55,92.79,23.73,92.27,24.79,91.8L24.79,91.8z M73.73,86.5c-0.67,0.48-1.36,0.94-2.06,1.36c-2.68,2.14-5.35,3.11-8.35,3.6 c-2.69,0.73-5.37,1.08-7.86,1.03c-2.53-0.05-5.28-0.52-8.04-1.39c-1.47-0.4-2.91-0.95-4.33-1.68c-0.15-0.07-0.29-0.14-0.43-0.21 c-1.55-0.75-3.07-1.63-4.52-2.63c-4.78,4.85-6.7,5.11-13.08,8.06c6.59,18.92,50.3,25.22,60.84-0.84 C79.4,91.12,78.53,91.3,73.73,86.5L73.73,86.5z M66.65,58.52c-0.03,0.14-0.04,0.28-0.04,0.42c0,1.28,1.03,2.31,2.31,2.31 c1.28,0,2.31-1.03,2.31-2.31c0-0.28-0.05-0.55-0.14-0.8c1.19,0.09,2.39,0.33,3.6,0.73c0.59,0.19,1.21-0.2,1.38-0.88 c0.17-0.68-0.18-1.38-0.77-1.57c-1.75-0.57-3.5-0.86-5.25-0.85c-1.75,0-3.48,0.29-5.19,0.86c-0.59,0.19-0.93,0.9-0.76,1.57 c0.17,0.67,0.79,1.06,1.38,0.87C65.87,58.73,66.26,58.61,66.65,58.52L66.65,58.52z M34.59,54.22c-0.54,0.44-1.34,0.37-1.78-0.17 c-0.44-0.54-0.37-1.34,0.17-1.78c2.65-2.19,6.87-1.43,10.49-0.78c1.52,0.27,2.93,0.53,3.9,0.49c0.7-0.02,1.28,0.52,1.31,1.22 c0.02,0.7-0.52,1.28-1.22,1.31c-1.23,0.04-2.77-0.23-4.43-0.53C39.94,53.42,36.34,52.78,34.59,54.22L34.59,54.22z M35.99,59.09 c-0.58,0.23-1.22-0.13-1.42-0.79c-0.2-0.66,0.11-1.39,0.7-1.62c1.75-0.68,3.51-1,5.28-0.99c1.75,0.01,3.5,0.35,5.25,0.98 c0.59,0.21,0.91,0.92,0.73,1.59c-0.19,0.67-0.81,1.04-1.4,0.83c-0.39-0.14-0.77-0.26-1.16-0.37c0.03,0.15,0.05,0.3,0.05,0.46 c0,1.28-1.03,2.31-2.31,2.31c-1.27,0-2.31-1.03-2.31-2.31c0-0.33,0.07-0.64,0.19-0.93C38.39,58.35,37.2,58.62,35.99,59.09 L35.99,59.09z M77.51,52.02c0.54,0.44,0.62,1.24,0.17,1.78c-0.44,0.54-1.24,0.62-1.78,0.17c-1.75-1.45-5.35-0.8-8.44-0.24 c-1.67,0.3-3.2,0.58-4.43,0.53c-0.7-0.02-1.24-0.61-1.22-1.31c0.02-0.7,0.61-1.24,1.31-1.22c0.97,0.03,2.38-0.22,3.9-0.49 C70.64,50.59,74.86,49.83,77.51,52.02L77.51,52.02z M51.64,67.21c-0.52-0.47-0.56-1.27-0.08-1.79c0.47-0.52,1.27-0.56,1.79-0.08 c0.65,0.59,1.25,0.87,1.82,0.86c0.58-0.01,1.2-0.31,1.86-0.88c0.53-0.46,1.33-0.4,1.78,0.13c0.46,0.53,0.4,1.33-0.13,1.78 c-1.12,0.97-2.29,1.48-3.5,1.5C53.96,68.74,52.78,68.24,51.64,67.21L51.64,67.21z M85.12,56.23c-0.2-0.36-0.08-0.81,0.27-1.02 c0.36-0.2,0.81-0.08,1.02,0.27c0.76,1.32,0.89,2.66-0.03,4.01c-0.23,0.34-0.69,0.43-1.03,0.2c-0.34-0.23-0.43-0.69-0.2-1.03 C85.68,57.87,85.59,57.06,85.12,56.23L85.12,56.23z M23.85,55.49c0.2-0.36,0.66-0.48,1.02-0.27c0.36,0.2,0.48,0.66,0.27,1.02 c-0.47,0.83-0.57,1.64-0.03,2.43c0.23,0.34,0.14,0.8-0.2,1.03c-0.34,0.23-0.8,0.14-1.03-0.2C22.96,58.14,23.09,56.81,23.85,55.49 L23.85,55.49z M87.44,48.98l-3.81,2.38l-1.57-10.7c-7.93,4.94-16.99,7.15-26.85,7.4c-9.44-0.07-18.48-2.14-26.9-7.44l-1.71,10.36 l-3.37-1.89c-0.3,0.33-0.77,0.49-1.24,0.37c-0.64-0.16-1.08,0.04-1.35,0.48c-0.58,0.94-0.7,2.66-0.48,4.59 c0.23,2.04,0.86,4.25,1.75,6.02c1.03,2.04,2.36,3.46,3.7,3.09l0,0c0.64-0.18,1.32,0.17,1.54,0.81c0.39,1.14,0.69,2.01,0.97,2.85 c0.27,0.79,0.52,1.56,0.78,2.3l6.72,5.12c2.56,2.51,4.75,2,6.72-0.09c4.86-4.57,20.64-5.69,25.7,0c2.78,2.55,5.15,2.43,7.05,0.09 l7.22-5.93c0.3-1.03,0.63-2.11,1.04-3.4c0.15-0.65,0.79-1.09,1.46-0.97c1.59,0.28,3.26-2.11,4.4-5.05 c0.69-1.76,1.15-3.69,1.31-5.42c0.14-1.62,0.03-3.02-0.43-3.85c-0.24-0.44-0.66-0.66-1.3-0.52l0,0c-0.05,0.01-0.1,0.02-0.15,0.02 C88.13,49.63,87.68,49.38,87.44,48.98L87.44,48.98z M51.49,79.23c-0.63-0.31-0.89-1.06-0.58-1.69c0.31-0.63,1.06-0.89,1.69-0.58 c1.12,0.55,2.1,0.81,3.06,0.8c0.96-0.01,1.95-0.28,3.07-0.81c0.63-0.3,1.39-0.02,1.68,0.61c0.3,0.63,0.02,1.38-0.61,1.68 c-1.45,0.68-2.78,1.04-4.13,1.05C54.32,80.3,52.97,79.96,51.49,79.23L51.49,79.23z"/></g></svg>