<svg id="Layer_1" data-name="Layer 1" xmlns="http://www.w3.org/2000/svg" viewBox="0 0 122.54 122.88"><defs><style>.cls-1{fill-rule:evenodd;}</style></defs><title>woman-lady</title><path class="cls-1" d="M10.79,77.86C22,77,26.06,65.35,27.43,53.33c2.1-18.41-.81-42.09,21.35-51C66.37-4.83,89.12,4.75,91.6,30.09c-.1,17.22,4.74,46.52,20.15,47.77-1.14,3.2-6.48,5.58-12.86,6.65,7.5,2,12.87,4.55,16.62,8.69,5.12,5.65,7,14,7,28a1.67,1.67,0,0,1-1.67,1.67H1.67A1.67,1.67,0,0,1,0,121.21c0-13.6,1.81-22,6.64-27.69,3.5-4.13,8.48-6.7,15.41-8.68-5.56-1.25-10.13-3.8-11.26-7Zm45.63-12a1.27,1.27,0,1,1,.86-2.38,11.07,11.07,0,0,0,8-.1,1.27,1.27,0,0,1,1.63.74,1.26,1.26,0,0,1-.73,1.63,13.65,13.65,0,0,1-9.75.11Zm-.6-26.68c1.94.73,2.34,2.35,1.26,3-1.27.72-2.87-.34-4.12-.74-3.24-1-7.09-1.15-9.89.59a15.78,15.78,0,0,0-2.27,1.8A7.8,7.8,0,0,1,42.18,41c2.81-3.54,9.88-3.75,13.64-1.82Zm10.91,0c-1.93.73-2.34,2.35-1.26,3,1.28.72,2.88-.34,4.12-.74,3.24-1,7.09-1.15,9.89.59a15.83,15.83,0,0,1,2.28,1.8A8,8,0,0,0,80.37,41c-2.81-3.54-9.88-3.75-13.64-1.82Zm-21.47,7a.86.86,0,0,1-.55-.59.94.94,0,0,1,.5-1.15,13.36,13.36,0,0,1,9.66,0,.93.93,0,0,1,.52,1.13.77.77,0,0,1-1,.59c-.53-.19-1.07-.35-1.59-.48a3,3,0,0,1,.07.6,2.24,2.24,0,1,1-4.47,0,2.2,2.2,0,0,1,.17-.86,12.22,12.22,0,0,0-2.41.57,1.4,1.4,0,0,1-.91.19Zm25.06-.56a2.4,2.4,0,0,0-.11.66,2.24,2.24,0,1,0,4.48,0,2.19,2.19,0,0,0-.23-1,14.48,14.48,0,0,1,3,.65.79.79,0,0,0,1-.63.94.94,0,0,0-.55-1.12A15.39,15.39,0,0,0,73,43.35a14.86,14.86,0,0,0-4.77.79.94.94,0,0,0-.55,1.12.79.79,0,0,0,1,.62,13.78,13.78,0,0,1,1.58-.43c.15,0,.11-.07.06.11ZM82.7,84.21a21.78,21.78,0,0,1-3.45-1.12,20.69,20.69,0,0,1-3.41-1.62,4.42,4.42,0,0,1-1.38-1.81,7.29,7.29,0,0,1-1.54-4.23c-.32-1.12-.43-1.61-.58-2.12-7,4.59-15.69,5.47-22.76.47-.09,2.19-1.31,7.2-3.28,8.4C43,84.16,37.8,85,34,85.64c-.91.15-1.75.29-2.49.43-1.22.24-2.39.48-3.52.73,10.87,10.56,21.8,16.46,32.81,16.79s22.31-4.94,33.86-16.72c-1.68-.4-3.46-.78-5.35-1.16l-.27,0c-1.63-.33-3.93-.79-6.3-1.45ZM76,68.06c9.84-10.89,11.55-19.67,8.64-34.18C77.8,30.71,73.32,23.72,71,13.23,68.28,33.21,43.75,32.35,37.58,36c0,9.08-1.19,15.43,2.81,23.71h0a49.78,49.78,0,0,0,2.78,5,25,25,0,0,0,2.73,3.81c8.24,8.88,22.33,7.77,30.12-.48Z"/></svg>